HIERARCHY
ROOT Hips
{
	OFFSET 0.000000 0.000000 0.000000 
	CHANNELS 6 Xposition Yposition Zposition Yrotation Zrotation Xrotation 
	JOINT Lumbar
	{
		OFFSET 0.000000 0.000000 0.000000 
		CHANNELS 3 Zrotation Xrotation Yrotation
		JOINT Neck
		{
			OFFSET 0.000000 0.445665 0.000000 
			CHANNELS 3 Zrotation Xrotation Yrotation
			End Site
			{
				OFFSET 0.000000 0.227535 0.000000 
			}
		}
		JOINT RightShoulder
		{
			OFFSET 0.019635 0.377685 0.194865 
			CHANNELS 3 Zrotation Xrotation Yrotation
			JOINT RightElbow
			{
				OFFSET 0.000000 -0.243375 0.000000 
				CHANNELS 2 Zrotation Yrotation
				JOINT RightWrist
				{
					OFFSET 0.000000 -0.264825 0.000000 
					CHANNELS 2 Zrotation Xrotation
					End Site
					{
						OFFSET 0.006600 -0.176220 0.000990 
					}
				}
			}
		}
		JOINT LeftShoulder
		{
			OFFSET 0.019635 0.377685 -0.194865 
			CHANNELS 3 Zrotation Xrotation Yrotation
			JOINT LeftElbow
			{
				OFFSET 0.000000 -0.243375 0.000000 
				CHANNELS 2 Zrotation Yrotation
				JOINT LeftWrist
				{
					OFFSET 0.000000 -0.264825 0.000000 
					CHANNELS 2 Zrotation Xrotation
					End Site
					{
						OFFSET 0.006600 -0.176220 -0.000990 
					}
				}
			}
		}
	}
	JOINT RightHip
	{
		OFFSET 0.052140 -0.069960 0.075570 
		CHANNELS 3 Zrotation Xrotation Yrotation
		JOINT RightKnee
		{
			OFFSET 0.000000 -0.402270 0.000000 
			CHANNELS 1 Zrotation
			JOINT RightAnkle
			{
				OFFSET 0.000000 -0.404085 0.000000 
				CHANNELS 3 Zrotation Xrotation Yrotation
				End Site
				{
					OFFSET 0.204105 -0.089430 0.008415 
				}
			}
		}
	}
	JOINT LeftHip
	{
		OFFSET 0.052140 -0.069960 -0.075570 
		CHANNELS 3 Zrotation Xrotation Yrotation
		JOINT LeftKnee
		{
			OFFSET 0.000000 -0.402270 0.000000 
			CHANNELS 1 Zrotation
			JOINT LeftAnkle
			{
				OFFSET 0.000000 -0.404085 0.000000 
				CHANNELS 3 Zrotation Xrotation Yrotation
				End Site
				{
					OFFSET 0.204105 -0.089430 -0.008415 
				}
			}
		}
	}
}
MOTION
Frames: 31
Frame Time: 0.02
-0.00244 0.00237 -0.00025 67.4817 -20.91144 -9.73232 41.67793 -0.89059 -8.04084 -16.31841 7.70485 -0.46493 -22.6851 -7.58967 -3.34526 29.67245 70.79287 1.80848 -2.90984 -24.98626 4.19512 8.37763 32.18636 -107.69539 17.64449 -1.15589 26.92994 -3.19942 -7.233 -20.38578 -6.82064 -4.75586 -3.32637 32.55591 3.79522 1.97517 -24.32639 -6.52398 2.56745 1.97476
-0.00126 0.00197 -0.00143 67.58462 -20.98479 -9.73198 41.75827 -0.92614 -7.95322 -16.18971 7.70879 -0.46535 -22.462 -7.15545 -4.47721 29.53946 75.98991 3.16446 -2.11097 -24.97346 4.39974 7.69727 32.26506 -107.76629 17.63974 -1.17252 26.92638 -3.14021 -7.24842 -20.40953 -6.83076 -4.78962 -3.33055 32.58245 3.81316 1.78099 -24.3764 -6.51661 2.5913 1.9856
-8e-05 0.00156 -0.00261 67.68724 -21.05795 -9.73157 41.8385 -0.96163 -7.86598 -16.06133 7.7125 -0.46578 -22.23997 -6.72305 -5.60364 29.40765 81.1644 4.51451 -1.31556 -24.96076 4.60343 7.02009 32.34368 -107.84374 17.637 -1.19021 26.92274 -3.08118 -7.26371 -20.4332 -6.84084 -4.82328 -3.33472 32.60878 3.83118 1.58794 -24.42624 -6.50926 2.615 1.99637
0.0011 0.00115 -0.00379 67.78983 -21.13109 -9.73123 41.91862 -0.99708 -7.77865 -15.93302 7.7164 -0.4662 -22.01762 -6.29025 -6.73169 29.2752 86.34417 5.86598 -0.51934 -24.948 4.80733 6.3421 32.42215 -107.91603 17.63274 -1.20706 26.91918 -3.02214 -7.27905 -20.45688 -6.85092 -4.85693 -3.33889 32.63522 3.84909 1.39446 -24.47609 -6.50192 2.63876 2.00718
0.00229 0.00075 -0.00497 67.89273 -21.2044 -9.73099 41.99878 -1.03258 -7.69089 -15.80444 7.72062 -0.46662 -21.79406 -5.8554 -7.86623 29.14128 91.5495 7.22417 0.28079 -24.93512 5.01236 5.66023 32.50066 -107.97785 17.6253 -1.2222 26.91574 -2.96295 -7.29462 -20.48065 -6.86102 -4.89068 -3.34306 32.66189 3.86685 1.19964 -24.52613 -6.49455 2.6627 2.01808
0.00347 0.00035 -0.00615 67.99478 -21.27722 -9.73021 42.07916 -1.06803 -7.60477 -15.67646 7.72325 -0.46704 -21.57527 -5.42817 -8.97571 29.01392 96.65924 8.55713 1.06629 -24.9228 5.21329 4.99277 32.5795 -108.08727 17.63217 -1.2451 26.91166 -2.90424 -7.30933 -20.50412 -6.87107 -4.92415 -3.34722 32.68752 3.8854 1.01027 -24.57553 -6.48725 2.6859 2.02857
0.00465 -7e-05 -0.00732 68.09838 -21.35096 -9.73052 42.15902 -1.10354 -7.51546 -15.54741 7.7291 -0.46746 -21.34711 -4.9862 -10.1337 28.8735 101.95377 9.93892 1.88007 -24.90936 5.42198 4.29786 32.65753 -108.10461 17.61143 -1.25299 26.90891 -2.8446 -7.32559 -20.52816 -6.88123 -4.95815 -3.35141 32.71524 3.90238 0.81025 -24.62616 -6.47982 2.71056 2.03988
0.00583 -0.00047 -0.0085 68.20064 -21.42383 -9.72982 42.23934 -1.139 -7.42905 -15.41937 7.73193 -0.46788 -21.12764 -4.55761 -11.24823 28.74513 107.0814 11.27654 2.66832 -24.89697 5.62399 3.62678 32.73643 -108.19992 17.61397 -1.2736 26.90485 -2.78587 -7.34076 -20.55167 -6.89126 -4.99164 -3.35556 32.74098 3.92076 0.61987 -24.67566 -6.47251 2.73389 2.05044
0.00702 -0.00086 -0.00968 68.30091 -21.49578 -9.72791 42.32034 -1.17439 -7.34633 -15.29241 7.73121 -0.46831 -20.91854 -4.1461 -12.30468 28.63154 111.99209 12.55699 3.42331 -24.88578 5.816 2.99066 32.81597 -108.41935 17.65397 -1.31441 26.89951 -2.72804 -7.35324 -20.57455 -6.90123 -5.0246 -3.35973 32.76448 3.94106 0.44202 -24.72379 -6.46534 2.75554 2.06004
0.00818 -0.00133 -0.01086 68.41158 -21.57345 -9.73302 42.39783 -1.21018 -7.2428 -15.15877 7.75135 -0.4687 -20.64903 -3.6385 -13.68039 28.43309 118.11216 14.15684 4.36352 -24.86745 6.06001 2.17093 32.89055 -108.01138 17.50553 -1.25299 26.90249 -2.66437 -7.37713 -20.6011 -6.91183 -5.06088 -3.36396 32.80142 3.95096 0.19428 -24.77984 -6.45732 2.78668 2.07502
0.0094 -0.00162 -0.01204 68.501 -21.63876 -9.7233 42.48244 -1.24511 -7.18291 -15.03954 7.72722 -0.46917 -20.50745 -3.33224 -14.39218 28.41347 121.7058 15.089 4.91695 -24.86431 6.19786 1.72731 32.9764 -108.87095 17.73716 -1.39822 26.88734 -2.61345 -7.37952 -20.61989 -6.92092 -5.08999 -3.36796 32.80968 3.98236 0.09255 -24.81914 -6.45113 2.79789 2.07875
0.01078 -0.00141 -0.01318 68.52601 -21.67212 -9.67275 42.5891 -1.27779 -7.24604 -14.95779 7.5822 -0.46986 -20.71536 -3.59573 -13.18291 28.89111 118.08896 14.11975 4.36518 -24.90231 6.0117 2.42071 33.08655 -113.71693 19.16995 -2.19238 26.8263 -2.59391 -7.30014 -20.61736 -6.92754 -5.10066 -3.37224 32.74087 4.07711 0.40697 -24.81245 -6.4498 2.75317 2.05056
0.01221 -0.00101 -0.01431 68.53089 -21.69258 -9.60738 42.70247 -1.30953 -7.35231 -14.89111 7.39254 -0.47063 -21.05116 -4.05847 -11.32432 29.54692 111.98562 12.49286 3.43292 -24.95561 5.7245 3.47384 33.2089 -119.74875 20.95752 -3.18003 26.74617 -2.58763 -7.20269 -20.60704 -6.93242 -5.10395 -3.37616 32.64281 4.19264 0.86471 -24.78895 -6.45031 2.68873 2.01129
0.01362 -0.00069 -0.01544 68.54888 -21.71782 -9.54887 42.81109 -1.34168 -7.43677 -14.8186 7.22302 -0.47136 -21.33059 -4.41847 -9.82894 30.11715 107.20283 11.21213 2.70372 -25.00229 5.50557 4.29185 33.33048 -124.89697 22.4763 -4.02425 26.67245 -2.57789 -7.12931 -20.60032 -6.93694 -5.10972 -3.37958 32.55729 4.29587 1.24728 -24.77314 -6.45009 2.63404 1.97774
0.01503 -0.0004 -0.01659 68.54982 -21.74813 -9.4897 42.92682 -1.3741 -7.53088 -14.74089 7.05432 -0.4721 -21.60649 -4.82928 -8.04887 30.70793 101.61497 9.73046 1.84748 -25.04775 5.19419 5.40672 33.43344 -131.47318 24.43981 -5.09845 26.60894 -2.55819 -6.99187 -20.59336 -6.94604 -5.11891 -3.3856 32.47554 4.41128 1.67423 -24.75704 -6.4495 2.57572 1.94117
0.01645 -1e-05 -0.0177 68.58185 -21.76418 -9.42854 43.02943 -1.40549 -7.61482 -14.67872 6.87296 -0.47283 -21.91553 -5.18281 -6.70258 31.29721 97.10909 8.51137 1.16442 -25.09918 5.04878 5.99644 33.5762 -135.39327 25.57372 -5.7454 26.51878 -2.5613 -6.97988 -20.58501 -6.94553 -5.11955 -3.38636 32.37821 4.50614 2.04059 -24.73762 -6.45005 2.52061 1.9084
0.01779 0.00064 -0.01864 68.70112 -21.74997 -9.36418 43.09311 -1.43637 -7.66209 -14.64546 6.67107 -0.47348 -22.32195 -5.31732 -6.75805 31.85311 96.25522 8.18084 1.06481 -25.16511 5.40948 4.97826 33.84242 -131.36116 24.21796 -5.11334 26.36805 -2.63364 -7.35064 -20.57526 -6.91572 -5.09543 -3.37075 32.25264 4.54004 2.22274 -24.71283 -6.45399 2.47665 1.8877
0.01914 0.00138 -0.01954 68.85256 -21.72105 -9.29851 43.14337 -1.46581 -7.69708 -14.62871 6.45743 -0.4741 -22.74952 -5.38957 -7.26222 32.40337 96.5656 8.13643 1.15042 -25.23624 5.93644 3.43183 34.14565 -124.67373 22.03451 -4.05405 26.19024 -2.72683 -7.84241 -20.5643 -6.87686 -5.06346 -3.35019 32.11158 4.55237 2.33587 -24.68543 -6.45892 2.43705 1.87143
0.0205 0.00207 -0.02047 68.99221 -21.69458 -9.23442 43.20075 -1.49462 -7.73661 -14.61182 6.24676 -0.47474 -23.14403 -5.49809 -7.53427 32.94076 96.30816 7.96034 1.14347 -25.30375 6.37217 2.17323 34.42051 -119.41904 20.30507 -3.22458 26.01858 -2.80412 -8.25776 -20.55353 -6.84426 -5.03705 -3.3332 31.97187 4.57399 2.46823 -24.65932 -6.46292 2.39717 1.85391
0.0218 0.00282 -0.02135 69.12118 -21.6843 -9.16598 43.25488 -1.52907 -7.78276 -14.56652 6.04418 -0.47538 -23.64532 -5.57961 -7.91123 33.53007 96.13075 7.7707 1.15888 -25.37683 6.87048 0.72658 34.74265 -113.26011 18.26483 -2.25212 25.86965 -2.9085 -8.7626 -20.54395 -6.80264 -5.00211 -3.31074 31.85271 4.59847 2.65549 -24.63182 -6.46889 2.34956 1.83282
0.02323 0.00346 -0.02232 69.27784 -21.63852 -9.10609 43.31145 -1.55112 -7.81074 -14.58143 5.82301 -0.476 -23.92338 -5.70035 -8.17404 34.03197 96.09123 7.68272 1.17633 -25.4397 7.27928 -0.45984 34.97731 -108.32784 16.66382 -1.47247 25.67043 -2.96182 -9.11045 -20.5318 -6.77753 -4.98297 -3.29838 31.69052 4.61164 2.71184 -24.60728 -6.47114 2.3192 1.82028
0.0251 0.00375 -0.02365 69.52496 -21.48309 -9.07365 43.3848 -1.54195 -7.7988 -14.7818 5.55026 -0.47657 -23.61345 -5.94003 -8.10752 34.0879 96.19591 7.83334 1.15853 -25.46931 7.40029 -0.78908 34.93983 -107.52341 16.53721 -1.33877 25.30893 -2.86388 -8.99224 -20.51205 -6.80168 -5.01112 -3.3162 31.38506 4.59863 2.40749 -24.58739 -6.46151 2.33668 1.83091
0.02709 0.00393 -0.02506 69.79536 -21.294 -9.04934 43.45821 -1.51973 -7.76735 -15.03784 5.26052 -0.47713 -23.07025 -6.22089 -7.89697 34.09617 96.40174 8.07326 1.13729 -25.48864 7.42595 -0.842 34.81611 -108.02543 16.86915 -1.41184 24.90183 -2.7147 -8.71315 -20.4899 -6.84253 -5.05511 -3.34414 31.04068 4.57498 1.97556 -24.57127 -6.44839 2.37121 1.84992
0.02901 0.00416 -0.02637 70.04024 -21.13204 -9.01895 43.52911 -1.50187 -7.73991 -15.25304 4.98021 -0.47768 -22.61243 -6.48527 -7.69175 34.25721 96.54343 8.25885 1.11687 -25.51567 7.49575 -1.02909 34.74706 -107.85951 16.94973 -1.38259 24.53742 -2.59232 -8.50888 -20.46947 -6.87477 -5.0908 -3.36678 30.73481 4.55619 1.61251 -24.55642 -6.43771 2.39727 1.86477
0.03102 0.00438 -0.02796 70.34725 -20.92508 -8.99827 43.61646 -1.49105 -7.73281 -15.53426 4.69019 -0.47821 -22.24655 -6.73934 -7.7518 33.85416 96.80483 8.51705 1.10654 -25.53198 7.56794 -1.19713 34.61759 -107.90153 17.18001 -1.37124 24.08591 -2.45594 -8.2989 -20.44654 -6.91092 -5.13103 -3.39232 30.34698 4.53634 1.20319 -24.52952 -6.42333 2.42668 1.88133
0.03285 0.0046 -0.02897 70.53251 -20.79717 -8.9597 43.66169 -1.46192 -7.67857 -15.69121 4.4191 -0.47887 -21.62844 -7.02399 -7.22412 34.6279 96.82107 8.63532 1.0711 -25.56576 7.61024 -1.33358 34.58846 -107.87205 17.22194 -1.38045 23.79707 -2.33614 -8.06443 -20.428 -6.94312 -5.16546 -3.41416 30.11267 4.51673 0.85824 -24.52785 -6.416 2.45291 1.89617
0.03414 0.00484 -0.02835 70.3538 -20.95722 -8.86628 43.66203 -1.39079 -7.50147 -15.48871 4.18248 -0.47925 -20.40964 -7.39482 -5.06629 38.54558 96.17934 8.40064 0.97522 -25.67072 7.59391 -1.43819 34.89726 -107.1814 16.60112 -1.3682 24.04216 -2.27568 -7.77083 -20.42466 -6.95924 -5.18187 -3.42431 30.38442 4.49814 0.74542 -24.60174 -6.42737 2.46786 1.90498
0.03523 0.00507 -0.02713 70.05566 -21.18822 -8.75516 43.6085 -1.30099 -7.27723 -15.15934 3.96972 -0.47988 -18.93512 -7.79263 -2.32762 43.66696 95.27583 8.01193 0.85217 -25.79005 7.55011 -1.52021 35.30309 -106.4064 15.78398 -1.3752 24.44074 -2.23341 -7.46253 -20.42543 -6.97105 -5.19164 -3.43027 30.80034 4.48064 0.69841 -24.69965 -6.44621 2.47871 1.9116
0.0364 0.0053 -0.02617 69.82657 -21.34446 -8.65451 43.5306 -1.21581 -7.07291 -14.89013 3.76039 -0.48084 -17.55541 -8.17119 0.11941 48.31947 94.4551 7.65409 0.7349 -25.88903 7.51731 -1.61792 35.63735 -105.78724 15.08176 -1.3957 24.71868 -2.18201 -7.18152 -20.42266 -6.9856 -5.20315 -3.43748 31.10046 4.46431 0.60565 -24.78205 -6.46277 2.49033 1.9187
0.03763 0.00554 -0.02525 69.53614 -21.67232 -8.54418 43.65163 -1.14523 -6.8741 -14.61359 3.48988 -0.47997 -16.26851 -8.58248 2.68778 52.65747 93.7824 7.45825 0.64379 -26.04491 7.48644 -1.68336 36.08175 -104.74645 14.28957 -1.33577 25.20249 -2.13238 -6.81101 -20.42666 -6.99746 -5.2203 -3.44765 31.60415 4.44079 0.57275 -24.88383 -6.47472 2.50712 1.92832
0.03868 0.00576 -0.0241 69.34455 -21.66841 -8.44936 43.35471 -1.04156 -6.65306 -14.31987 3.35311 -0.4829 -14.71735 -8.92918 5.13983 57.91551 92.74902 6.89536 0.49372 -26.08721 7.44763 -1.81428 36.32452 -104.5088 13.62844 -1.43709 25.30376 -2.08418 -6.62167 -20.41784 -7.01364 -5.22429 -3.45071 31.72776 4.43238 0.43565 -24.95108 -6.49783 2.512 1.93201
